<svg width="2717" height="2008" viewBox="0 0 2717 2008" version="1.1" xmlns="http://www.w3.org/2000/svg" xmlns:xlink="http://www.w3.org/1999/xlink">
<title>Group</title>
<desc>Created using Figma</desc>
<g id="Canvas" transform="translate(6653 -156)">
<g id="Group">
<g id="rect9002">
<use xlink:href="#path0_fill" transform="matrix(0.5 0.866025 -0.866025 0.5 -5309.13 1097.39)" fill="url(#paint0_linear)" fill-opacity="0.2"/>
</g>
<g id="rect9002">
<use xlink:href="#path1_fill" transform="matrix(0.5 0.866025 -0.866025 0.5 -5936.32 334.022)" fill="url(#paint1_linear)" fill-opacity="0.2"/>
</g>
<g id="rect9002">
<use xlink:href="#path2_fill" transform="matrix(0.5 0.866025 -0.866025 0.5 -4542.21 138)" fill="url(#paint2_linear)" fill-opacity="0.2"/>
</g>
</g>
</g>
<defs>
<linearGradient id="paint0_linear" x1="0" y1="0" x2="1" y2="0" gradientUnits="userSpaceOnUse" gradientTransform="matrix(231.626 1784.45 -1381.5 299.187 1054.21 215.279)">
<stop offset="0" stop-color="#C8DEFF"/>
<stop offset="1" stop-color="#CA9FF2"/>
</linearGradient>
<linearGradient id="paint1_linear" x1="0" y1="0" x2="1" y2="0" gradientUnits="userSpaceOnUse" gradientTransform="matrix(198.229 1633.64 -1182.31 273.902 902.207 197.085)">
<stop offset="0" stop-color="#C8DEFF"/>
<stop offset="1" stop-color="#CA9FF2"/>
</linearGradient>
<linearGradient id="paint2_linear" x1="0" y1="0" x2="1" y2="0" gradientUnits="userSpaceOnUse" gradientTransform="matrix(403.034 1633.64 -2403.83 273.902 1834.34 197.085)">
<stop offset="0" stop-color="#C8DEFF"/>
<stop offset="1" stop-color="#CA9FF2"/>
</linearGradient>
<path id="path0_fill" d="M 667.396 0L 50 0C 22.3858 0 0 22.3858 0 50L 0 876.647C 0 904.261 22.3858 926.647 50 926.647L 667.396 926.647C 695.01 926.647 717.396 904.261 717.396 876.647L 717.396 50C 717.396 22.3858 695.01 0 667.396 0Z"/>
<path id="path1_fill" d="M 563.959 0L 50 0C 22.3858 0 0 22.3858 0 50L 0 798.334C 0 825.948 22.3858 848.334 50 848.334L 563.959 848.334C 591.573 848.334 613.959 825.948 613.959 798.334L 613.959 50C 613.959 22.3858 591.573 0 563.959 0Z"/>
<path id="path2_fill" d="M 1198.28 0L 50 0C 22.3858 0 0 22.3858 0 50L 0 798.334C 0 825.948 22.3858 848.334 50 848.334L 1198.28 848.334C 1225.9 848.334 1248.28 825.948 1248.28 798.334L 1248.28 50C 1248.28 22.3858 1225.9 0 1198.28 0Z"/>
</defs>
</svg>
