<svg width="3278" height="2008" viewBox="0 0 3278 2008" version="1.1" xmlns="http://www.w3.org/2000/svg" xmlns:xlink="http://www.w3.org/1999/xlink">
<title>bg-top</title>
<desc>Created using Figma</desc>
<g id="Canvas" transform="translate(3471 494)">
<g id="bg-top">
<g id="rect9002">
<use xlink:href="#path0_fill" transform="matrix(0.5 0.866025 -0.866025 0.5 -1727.13 447.393)" fill="url(#paint0_linear)" fill-opacity="0.2"/>
</g>
<g id="rect9002">
<use xlink:href="#path1_fill" transform="matrix(0.5 0.866025 -0.866025 0.5 -2354.32 -315.978)" fill="url(#paint1_linear)"/>
</g>
<g id="rect9002">
<use xlink:href="#path2_fill" transform="matrix(0.5 0.866025 -0.866025 0.5 -960.207 -512)" fill="url(#paint2_linear)"/>
</g>
</g>
</g>
<defs>
<linearGradient id="paint0_linear" x1="0" y1="0" x2="1" y2="0" gradientUnits="userSpaceOnUse" gradientTransform="matrix(231.626 1784.45 -1381.5 299.187 1054.21 215.279)">
<stop offset="0" stop-color="#C8DEFF"/>
<stop offset="1" stop-color="#CA9FF2"/>
</linearGradient>
<linearGradient id="paint1_linear" x1="0" y1="0" x2="1" y2="0" gradientUnits="userSpaceOnUse" gradientTransform="matrix(-1423.01 -6754.45 1190.57 -7295.82 49.3038 5074.74)">
<stop offset="0" stop-color="#AA00D4"/>
<stop offset="1" stop-color="#0066FF"/>
</linearGradient>
<linearGradient id="paint2_linear" x1="0" y1="0" x2="1" y2="0" gradientUnits="userSpaceOnUse" gradientTransform="matrix(-3639.91 -4373.55 3045.35 -4724.09 126.114 3285.93)">
<stop offset="0" stop-color="#AA00D4"/>
<stop offset="1" stop-color="#0066FF"/>
</linearGradient>
<path id="path0_fill" d="M 667.396 0L 50 0C 22.3858 0 0 22.3858 0 50L 0 876.647C 0 904.261 22.3858 926.647 50 926.647L 667.396 926.647C 695.01 926.647 717.396 904.261 717.396 876.647L 717.396 50C 717.396 22.3858 695.01 0 667.396 0Z"/>
<path id="path1_fill" d="M 563.959 0L 50 0C 22.3858 0 0 22.3858 0 50L 0 1260.15C 0 1287.77 22.3858 1310.15 50 1310.15L 563.959 1310.15C 591.573 1310.15 613.959 1287.77 613.959 1260.15L 613.959 50C 613.959 22.3858 591.573 0 563.959 0Z"/>
<path id="path2_fill" d="M 1520.45 0L 50 0C 22.3858 0 0 22.3858 0 50L 0 798.334C 0 825.948 22.3858 848.334 50 848.334L 1520.45 848.334C 1548.06 848.334 1570.45 825.948 1570.45 798.334L 1570.45 50C 1570.45 22.3858 1548.06 0 1520.45 0Z"/>
</defs>
</svg>
